<?xml version="1.0" standalone="no"?>
<!DOCTYPE svg PUBLIC "-//W3C//DTD SVG 20010904//EN"
 "http://www.w3.org/TR/2001/REC-SVG-20010904/DTD/svg10.dtd">
<svg version="1.0" xmlns="http://www.w3.org/2000/svg"
 width="640.000000pt" height="640.000000pt" viewBox="0 0 640.000000 640.000000"
 preserveAspectRatio="xMidYMid meet">
<metadata>
Created by potrace 1.14, written by Peter Selinger 2001-2017
</metadata>
<g transform="translate(0.000000,640.000000) scale(0.100000,-0.100000)"
fill="#000000" stroke="none">
<path d="M0 6089 l0 -311 32 7 c17 4 56 23 87 43 71 45 220 122 238 122 7 0
21 4 31 9 47 24 95 41 114 41 12 0 44 11 72 24 46 21 62 23 166 20 155 -4 306
-18 358 -34 39 -12 44 -12 66 9 l23 22 44 -20 c58 -26 221 -63 243 -55 9 3 37
1 62 -6 65 -19 180 10 232 58 34 30 35 33 12 27 -14 -3 -50 -13 -80 -20 -30
-8 -96 -14 -145 -15 -74 0 -98 4 -130 21 -22 12 -69 32 -105 45 -71 25 -88 49
-43 60 15 4 46 17 68 29 22 12 65 31 95 41 30 10 77 32 104 48 39 24 65 31
127 36 67 4 82 9 107 33 33 32 94 37 142 12 22 -12 40 -13 72 -6 84 17 391
-14 471 -48 26 -11 76 -28 110 -37 101 -26 210 -75 246 -111 18 -18 40 -33 47
-33 8 0 17 -7 21 -15 3 -9 34 -36 69 -61 89 -64 84 -100 -7 -54 -22 12 -59 25
-82 29 -23 5 -55 14 -72 19 -16 6 -65 19 -107 28 -63 15 -83 16 -116 6 -22 -7
-48 -12 -60 -12 -21 0 -40 -30 -19 -30 7 -1 48 -7 92 -15 44 -8 113 -17 153
-21 40 -4 75 -11 78 -15 3 -5 15 -9 26 -9 12 0 35 -11 52 -24 17 -13 51 -33
76 -46 25 -13 68 -44 97 -69 59 -53 196 -117 281 -133 56 -10 77 -18 155 -60
23 -12 66 -23 105 -26 74 -5 214 -48 283 -86 24 -13 69 -32 100 -40 50 -15 64
-26 138 -107 106 -117 101 -137 -19 -89 -108 43 -117 38 -108 -50 3 -25 2 -25
-67 -24 -38 0 -100 4 -137 9 -43 5 -72 4 -80 -2 -20 -16 -66 -24 -73 -13 -3 5
8 16 25 25 18 9 30 23 30 35 0 25 -3 25 -69 -1 -115 -43 -165 -80 -233 -174
-64 -89 -118 -173 -118 -185 0 -16 -48 -108 -60 -115 -5 -3 -10 -13 -10 -21 0
-8 -18 -41 -40 -73 -22 -32 -40 -63 -40 -68 0 -6 -9 -18 -21 -29 -12 -10 -33
-41 -46 -69 -14 -27 -35 -63 -47 -80 -21 -29 -28 -42 -74 -124 -12 -23 -27
-41 -32 -41 -15 0 -90 -107 -106 -152 -8 -22 -28 -57 -45 -77 -83 -99 -119
-146 -119 -157 0 -6 -7 -14 -15 -18 -16 -6 -39 -55 -30 -64 7 -7 45 28 45 42
1 20 78 97 85 86 10 -16 -1 -52 -41 -134 -19 -40 -41 -104 -48 -142 -8 -38
-21 -91 -30 -117 -20 -61 -25 -299 -9 -383 6 -34 21 -82 32 -107 12 -25 33
-88 47 -139 15 -51 38 -106 50 -121 13 -16 24 -35 24 -42 0 -8 16 -41 35 -73
56 -97 55 -92 101 -447 9 -69 14 -85 28 -85 8 0 17 -7 20 -16 10 -26 7 -92 -5
-96 -5 -2 -14 -22 -19 -45 -6 -23 -27 -72 -47 -109 -71 -125 -82 -146 -89
-167 -4 -12 -15 -33 -24 -47 -19 -27 -50 -172 -50 -235 0 -42 -39 -118 -69
-135 -11 -5 -29 -31 -41 -57 -12 -27 -30 -64 -40 -83 -10 -19 -25 -62 -34 -95
-19 -79 -44 -145 -62 -169 -14 -19 -15 -19 -67 2 -29 12 -56 22 -60 22 -19 0
-177 104 -177 117 0 19 23 16 62 -7 46 -27 101 -31 106 -7 4 18 -33 56 -56 57
-7 0 -32 20 -56 45 -25 25 -53 45 -65 45 -11 0 -23 5 -26 11 -4 5 -19 15 -33
20 -22 8 -24 12 -12 20 11 7 8 9 -15 8 -48 -3 -67 0 -60 11 3 6 16 10 28 10
13 1 1 8 -28 19 -28 10 -75 37 -105 59 -30 23 -61 42 -68 42 -7 0 -28 15 -47
34 -18 19 -39 36 -47 39 -10 4 -11 7 0 18 10 11 17 11 40 -3 15 -8 44 -18 65
-21 55 -9 46 18 -18 52 -27 15 -72 42 -99 59 -28 18 -55 32 -62 32 -6 0 -17 7
-24 15 -7 8 -22 15 -34 15 -17 0 -18 2 -6 10 8 5 25 10 38 10 12 0 22 5 22 10
0 6 -8 10 -18 10 -25 0 -56 35 -49 55 9 21 -32 45 -90 53 -46 7 -48 9 -53 42
-5 32 -9 36 -60 53 -30 10 -71 18 -90 18 -51 0 -119 -12 -125 -22 -3 -4 -16
-4 -28 0 -14 5 -61 5 -112 -1 -87 -9 -89 -9 -106 14 -10 13 -15 26 -11 30 4 3
55 8 114 10 60 1 108 6 108 9 0 3 -26 11 -57 17 -129 25 -138 27 -148 49 -6
11 -31 36 -56 55 l-45 35 -155 6 c-168 7 -216 16 -245 48 l-19 21 65 -3 c54
-3 65 -1 68 13 10 48 -122 62 -273 27 -132 -30 -155 -33 -155 -20 0 25 64 71
97 71 18 0 33 5 33 10 0 13 -97 13 -105 0 -3 -5 -13 -10 -21 -10 -8 0 -37 -10
-64 -22 l-50 -23 0 -1087 0 -1088 1645 0 c1775 0 1709 -2 1598 50 -63 29 -93
58 -93 89 -1 26 -71 94 -150 145 -30 19 -35 27 -35 61 0 38 -2 40 -38 46 -20
3 -69 19 -107 34 -74 30 -90 54 -50 75 25 14 17 30 -15 30 -35 0 -54 10 -49
25 8 20 -23 44 -72 56 -35 9 -53 22 -84 62 -38 47 -51 89 -31 101 5 3 6 25 4
50 -4 36 -1 48 17 66 13 13 28 19 38 15 16 -6 60 -20 349 -105 56 -16 110 -30
120 -30 10 0 43 -10 73 -21 30 -12 76 -24 102 -28 63 -10 83 -30 108 -110 12
-36 32 -79 44 -96 12 -16 27 -41 33 -55 5 -14 27 -45 47 -70 82 -101 94 -118
134 -200 25 -51 45 -107 49 -138 l6 -52 206 0 c166 1 202 3 186 13 -60 35 -85
62 -85 89 0 15 4 28 10 28 10 0 59 -42 115 -96 l31 -32 119 -1 c113 -1 117 0
101 17 -17 20 -21 42 -8 42 5 0 46 -14 92 -30 69 -25 98 -30 173 -30 l91 0
-32 31 c-40 39 -45 68 -7 43 14 -9 25 -22 25 -29 0 -7 11 -20 25 -29 21 -14
61 -16 279 -16 239 0 255 1 249 18 -3 9 -15 26 -26 36 -12 11 -16 21 -10 23 6
2 30 -14 52 -36 l42 -41 310 0 c204 0 308 3 304 10 -3 6 -2 10 4 10 5 0 13 -5
16 -10 4 -6 98 -10 251 -10 l244 0 0 3200 0 3201 -837 -3 c-789 -3 -840 -4
-870 -21 -40 -22 -134 -29 -148 -11 -13 16 -25 7 -81 -61 -56 -70 -86 -154
-63 -181 14 -17 6 -161 -10 -177 -6 -6 -11 -19 -11 -30 0 -31 -42 -17 -53 18
-5 17 -18 39 -28 51 -11 11 -19 27 -19 35 0 9 -13 40 -29 70 -22 41 -30 72
-34 132 -5 77 -5 77 27 112 20 21 43 35 57 35 13 0 33 7 43 15 17 13 -241 15
-2162 15 l-2182 0 0 -311z m4765 250 c0 -8 -10 -18 -22 -24 -13 -5 -25 -22
-29 -40 -3 -16 -17 -62 -30 -102 -13 -39 -24 -89 -24 -110 0 -42 -28 -111 -53
-132 -11 -8 -27 -11 -44 -6 -16 3 -48 9 -73 13 l-45 7 1 45 c2 53 19 166 29
195 13 33 57 75 80 75 11 0 27 6 33 13 18 17 155 85 167 83 6 -2 10 -9 10 -17z
m429 -73 c23 -13 61 -48 86 -78 24 -29 70 -77 101 -106 32 -29 61 -63 65 -75
4 -12 20 -38 36 -57 80 -95 105 -150 123 -264 13 -80 16 -137 11 -210 -10
-154 -16 -183 -42 -211 -13 -14 -24 -33 -24 -42 0 -9 -11 -30 -23 -47 -13 -17
-30 -49 -37 -71 -17 -51 -76 -164 -100 -190 -10 -11 -22 -33 -26 -50 -9 -39
-41 -85 -60 -85 -18 0 -18 14 2 51 11 23 14 46 8 98 -4 43 -2 76 5 89 6 11 13
87 15 169 3 81 8 166 11 188 5 30 3 44 -8 53 -18 16 -24 -2 -37 -113 -9 -79
-15 -111 -41 -229 -9 -45 -10 -63 -1 -77 18 -28 15 -45 -20 -142 -23 -64 -39
-93 -60 -108 -15 -11 -28 -25 -28 -30 0 -15 -99 -146 -115 -153 -23 -9 -18 7
31 101 72 136 72 136 113 236 17 43 26 173 12 181 -7 4 -11 0 -11 -11 0 -10
-6 -38 -14 -63 -8 -25 -21 -67 -27 -95 -7 -27 -27 -65 -43 -85 -37 -42 -51
-64 -71 -107 -38 -82 -45 -3 -10 107 9 30 24 82 32 115 9 33 29 101 45 150 17
50 34 119 39 155 5 36 12 83 15 105 4 23 19 54 35 73 36 41 38 93 7 207 -12
44 -22 98 -23 120 -3 63 -17 139 -28 153 -6 7 -12 45 -14 84 -2 39 -8 79 -13
89 -13 23 -13 49 -1 49 15 0 61 -46 61 -60 0 -19 42 -100 52 -100 15 0 8 32
-22 97 -16 35 -30 66 -30 69 0 3 -16 18 -35 35 -27 24 -35 39 -35 64 0 32 7
39 44 44 5 0 28 -10 50 -23z m-4933 -318 c-13 -10 -29 -18 -36 -18 -6 0 -20
-9 -30 -20 -19 -21 -69 -28 -63 -9 2 6 15 16 28 23 14 7 43 22 65 33 46 24 69
19 36 -9z m2809 -18 c0 -5 -7 -7 -15 -4 -8 4 -15 8 -15 10 0 2 7 4 15 4 8 0
15 -4 15 -10z m30 -20 c0 -5 -2 -10 -4 -10 -3 0 -8 5 -11 10 -3 6 -1 10 4 10
6 0 11 -4 11 -10z m2160 -1206 c-7 -13 -17 -21 -22 -18 -13 8 -9 31 9 50 22
22 30 1 13 -32z m-1099 -1481 c18 -39 28 -75 25 -87 -3 -12 -10 -46 -17 -76
-6 -30 -24 -86 -39 -125 -15 -38 -33 -85 -40 -103 -9 -23 -11 -63 -7 -130 6
-97 16 -137 55 -222 29 -61 50 -123 68 -195 12 -47 13 -67 4 -92 -9 -27 -8
-37 4 -55 18 -25 21 -131 6 -208 -4 -25 -13 -74 -20 -109 -6 -35 -15 -73 -21
-83 -15 -28 -39 -184 -39 -258 0 -36 -7 -92 -15 -124 -16 -61 -73 -165 -90
-166 -6 0 -28 -10 -50 -22 -32 -18 -56 -22 -120 -22 -89 1 -144 14 -225 52
-32 15 -73 26 -99 26 -42 1 -45 -1 -87 -59 -29 -40 -55 -97 -80 -173 l-38
-114 -76 7 c-41 4 -111 9 -155 10 -85 3 -415 32 -477 41 -68 11 -60 42 32 126
67 62 82 98 29 71 -42 -21 -56 -6 -33 38 9 19 29 45 43 60 26 25 61 80 96 149
10 19 22 42 26 50 36 62 47 131 25 153 -22 22 -20 35 15 90 24 40 33 47 51 41
27 -8 37 9 31 55 -4 30 0 43 23 71 24 27 29 42 27 79 -1 30 4 52 14 63 10 12
13 25 8 40 -4 13 -9 82 -11 153 -5 186 -10 212 -41 227 -15 7 -27 21 -29 30
-1 10 -10 51 -20 93 -20 84 -17 91 38 110 25 8 33 16 34 35 0 14 4 33 9 44 4
10 8 30 9 45 1 23 5 26 34 24 18 0 56 -9 85 -18 50 -16 53 -16 92 3 22 11 51
25 65 31 14 7 33 25 42 41 9 17 24 30 33 30 9 0 50 -18 92 -40 87 -45 128 -50
203 -23 34 12 52 26 63 47 27 52 40 89 46 136 l6 45 45 -2 c25 -1 68 -10 96
-19 l51 -17 55 31 c60 35 69 53 83 167 15 117 24 121 66 28z m91 -784 c19 -14
28 -28 26 -43 -4 -31 -38 -26 -59 9 -33 57 -20 71 33 34z m-3862 -399 c0 -5
-6 -10 -14 -10 -8 0 -18 5 -21 10 -3 6 3 10 14 10 12 0 21 -4 21 -10z m-116
-96 c21 -8 21 -44 1 -44 -22 0 -75 29 -75 40 0 11 49 13 74 4z m1089 -141 c4
-2 7 -12 7 -21 0 -15 -13 -17 -127 -14 -122 2 -194 16 -176 33 4 4 19 9 33 12
28 5 251 -3 263 -10z m-628 -63 c-3 -5 -10 -10 -16 -10 -5 0 -9 5 -9 10 0 6 7
10 16 10 8 0 12 -4 9 -10z m765 -30 c0 -5 -6 -10 -14 -10 -8 0 -18 5 -21 10
-3 6 3 10 14 10 12 0 21 -4 21 -10z m-160 -26 c23 -23 -3 -38 -67 -39 -64 0
-75 13 -43 45 18 18 29 21 58 15 21 -3 44 -13 52 -21z m220 0 c0 -2 -9 -4 -21
-4 -11 0 -18 4 -14 10 5 8 35 3 35 -6z m-173 0 c-3 -3 -12 -4 -19 -1 -8 3 -5
6 6 6 11 1 17 -2 13 -5z m1443 -123 c0 -6 -4 -13 -10 -16 -5 -3 -10 1 -10 9 0
9 5 16 10 16 6 0 10 -4 10 -9z m-2264 -141 c13 0 24 -3 24 -8 0 -10 -79 -2
-86 9 -3 5 -17 9 -32 9 -20 0 -23 3 -13 9 10 6 27 5 49 -5 19 -8 45 -14 58
-14z m389 -59 c3 -5 1 -12 -4 -15 -13 -8 -42 4 -35 15 7 12 31 12 39 0z m591
-88 c-8 -8 -36 5 -36 17 0 7 6 7 21 0 11 -7 18 -14 15 -17z m3353 -439 c18
-13 20 -18 10 -25 -22 -14 -56 -10 -74 7 -13 14 -14 19 -3 25 20 13 41 11 67
-7z m-2518 -11 c32 -19 46 -43 25 -43 -27 0 -86 31 -86 45 0 20 25 19 61 -2z
m2707 -129 c32 -9 27 -24 -7 -24 -30 0 -46 12 -34 24 8 7 12 7 41 0z m-2673
-126 c8 -13 11 -24 6 -26 -14 -5 -71 27 -71 38 0 19 49 10 65 -12z m2665 5
c-1 -18 -29 -43 -46 -43 -34 0 -62 12 -68 27 -5 11 1 14 28 12 19 -2 38 0 42
4 10 9 44 9 44 0z m271 -93 c23 -6 49 -15 58 -20 24 -13 83 -37 109 -45 12 -3
22 -10 22 -15 0 -20 -23 -20 -78 -2 -31 11 -84 28 -117 38 -72 20 -98 40 -75
54 8 5 20 8 27 5 6 -2 31 -9 54 -15z m-973 -183 c18 -34 32 -66 32 -72 0 -5
29 -46 65 -90 36 -44 65 -83 65 -87 0 -15 -17 -8 -40 17 -14 15 -39 27 -67 31
-34 5 -56 18 -96 54 -29 27 -49 51 -46 54 3 3 22 1 42 -5 44 -12 57 -6 57 24
0 23 -47 67 -107 102 -18 11 -33 23 -33 27 0 4 21 8 48 8 l47 0 33 -63z m1152
45 c115 -31 143 -69 44 -59 -56 6 -134 42 -142 66 -5 14 28 12 98 -7z m-2742
-8 c12 -4 22 -14 22 -25 0 -28 -15 -31 -44 -8 -42 33 -32 47 22 33z m2072 -40
c0 -2 -7 -4 -15 -4 -8 0 -15 4 -15 10 0 5 7 7 15 4 8 -4 15 -8 15 -10z m85 -4
c3 -5 -3 -10 -14 -10 -12 0 -21 5 -21 10 0 6 6 10 14 10 8 0 18 -4 21 -10z
m-4398 -45 c3 -9 3 -18 0 -21 -9 -9 -48 16 -42 27 9 14 35 11 42 -6z m4463 -5
c0 -5 -4 -10 -9 -10 -6 0 -13 5 -16 10 -3 6 1 10 9 10 9 0 16 -4 16 -10z
m-4366 -61 c28 -22 34 -39 14 -39 -15 0 -78 42 -78 53 0 14 38 7 64 -14z
m1481 1 c28 -11 35 -47 10 -56 -13 -6 -85 54 -85 71 0 8 32 1 75 -15z m3002
-44 c-6 -17 -27 -18 -33 -2 -3 9 -3 24 1 34 6 16 7 16 21 -3 8 -10 13 -24 11
-29z m547 38 c24 -9 19 -24 -8 -24 -26 0 -40 12 -29 24 8 8 17 8 37 0z m-4334
-27 c14 -13 34 -27 45 -32 19 -8 19 -8 1 -13 -10 -2 -22 2 -27 9 -4 7 -15 14
-24 15 -31 5 -45 13 -45 29 0 22 21 19 50 -8z m1159 -1 c15 -8 20 -16 13 -20
-13 -8 -52 10 -52 24 0 13 10 12 39 -4z m-844 -17 c4 -6 5 -13 2 -16 -8 -7
-47 7 -47 18 0 13 37 11 45 -2z m3265 -10 c0 -14 -5 -19 -17 -17 -26 5 -29 38
-4 38 15 0 21 -6 21 -21z m650 11 c0 -5 12 -10 28 -10 29 -1 72 -33 92 -69 16
-31 9 -34 -37 -21 -27 8 -45 23 -63 51 -13 21 -31 39 -40 39 -8 0 -22 5 -30
10 -11 7 -7 10 18 10 17 0 32 -4 32 -10z m-2892 -94 c5 -21 -31 -21 -53 0 -13
13 -14 19 -4 25 17 10 53 -5 57 -25z"/>
<path d="M5258 5893 c-4 -31 -1 -49 36 -217 14 -65 26 -131 26 -146 0 -28 21
-55 33 -43 10 10 8 82 -3 102 -5 10 -12 61 -14 112 -5 92 -16 167 -31 202 -12
28 -43 21 -47 -10z"/>
<path d="M3275 2766 c-17 -40 -58 -58 -133 -58 -66 -1 -79 -10 -87 -65 -3 -26
-13 -58 -21 -70 -8 -12 -14 -44 -14 -69 0 -45 3 -50 66 -111 36 -35 67 -63 68
-63 14 0 66 24 66 30 0 4 -19 27 -42 50 -91 91 -98 110 -76 207 13 55 28 71
28 29 0 -33 17 -76 30 -76 5 0 9 15 8 32 -2 26 1 34 17 36 15 2 23 -6 31 -27
24 -61 114 -73 114 -15 0 15 -7 35 -16 45 -21 24 -10 54 25 69 35 14 60 4 85
-35 19 -29 56 -33 81 -9 27 27 15 57 -25 65 -21 5 -45 20 -61 38 -22 27 -32
31 -78 31 -50 0 -53 -1 -66 -34z"/>
<path d="M3327 2354 c-8 -8 1 -24 14 -24 5 0 9 7 9 15 0 15 -12 20 -23 9z"/>
<path d="M3183 1899 c-58 -56 -68 -96 -43 -167 11 -31 35 -71 52 -90 39 -40
131 -102 151 -102 7 0 19 -11 27 -24 7 -14 25 -30 41 -36 16 -7 40 -27 54 -46
14 -19 32 -34 39 -34 7 0 22 -18 35 -40 12 -22 27 -40 33 -40 7 0 24 -15 39
-32 21 -25 30 -30 39 -22 20 20 3 41 -130 165 -95 88 -106 97 -130 109 -78 40
-164 129 -184 192 -22 64 -20 110 5 152 32 54 19 61 -28 15z"/>
<path d="M2182 6078 c-47 -33 -72 -68 -48 -68 8 0 33 16 57 36 31 26 48 34 63
29 22 -7 108 -24 141 -28 14 -1 20 4 20 18 0 16 -11 22 -50 31 -87 21 -135 16
-183 -18z"/>
<path d="M1940 5955 c-34 -9 -46 -17 -48 -33 -4 -24 15 -29 46 -13 9 5 29 14
45 20 15 6 27 17 27 26 0 17 -7 17 -70 0z"/>
<path d="M2795 5482 c-16 -11 -36 -26 -44 -35 -7 -10 -19 -17 -26 -17 -6 0
-20 -9 -30 -20 -10 -11 -37 -25 -59 -30 -81 -20 -211 -63 -233 -76 -12 -8 -44
-22 -71 -32 -78 -30 -202 -137 -202 -174 0 -22 18 -24 27 -3 7 21 141 120 173
130 14 4 34 15 45 25 34 30 88 43 119 28 22 -9 32 -9 48 1 37 23 117 42 178
42 34 0 66 6 77 14 10 8 37 15 59 15 24 0 47 6 54 15 8 10 37 15 98 17 72 2
87 6 90 20 3 17 -41 30 -150 43 -30 4 -59 16 -77 31 -35 29 -38 29 -76 6z"/>
<path d="M1795 5343 c-30 -32 -55 -63 -55 -69 0 -7 -19 -19 -42 -29 -23 -9
-55 -28 -71 -41 -27 -23 -37 -25 -96 -21 -66 4 -137 19 -169 36 -9 5 -46 14
-82 20 -36 7 -79 14 -97 17 -17 4 -39 15 -49 25 -20 23 -50 24 -101 5 -21 -7
-87 -28 -147 -46 -59 -18 -127 -44 -150 -60 -22 -15 -53 -35 -69 -44 -28 -17
-36 -36 -14 -36 7 0 18 5 25 12 12 12 66 34 122 49 28 7 293 38 350 41 49 2
271 -16 276 -23 2 -4 25 -11 50 -15 53 -8 68 -29 37 -53 -12 -9 -48 -37 -81
-63 -33 -27 -65 -48 -71 -48 -7 0 -71 -29 -144 -64 -73 -36 -150 -69 -172 -75
-51 -13 -152 -73 -185 -109 -14 -15 -51 -40 -83 -56 -49 -25 -79 -58 -65 -72
7 -6 105 45 118 61 7 8 18 15 25 15 6 0 41 16 76 35 92 50 108 56 169 65 69
10 214 79 260 123 8 8 30 22 48 31 17 9 32 21 32 26 0 5 33 30 72 57 77 51
358 325 358 349 0 26 -20 14 -75 -43z"/>
<path d="M437 5033 c-49 -35 -47 -47 6 -39 49 8 87 30 87 51 0 24 -51 18 -93
-12z"/>
<path d="M302 5000 c-48 -45 -53 -61 -16 -54 37 7 74 33 74 53 -1 39 -16 40
-58 1z"/>
<path d="M130 4949 c0 -5 5 -7 10 -4 6 3 10 8 10 11 0 2 -4 4 -10 4 -5 0 -10
-5 -10 -11z"/>
<path d="M518 4948 c9 -9 15 -9 24 0 9 9 7 12 -12 12 -19 0 -21 -3 -12 -12z"/>
<path d="M3060 4931 c-5 -11 -10 -30 -10 -43 0 -28 -22 -43 -168 -119 -24 -12
-46 -29 -49 -38 -9 -26 -83 -121 -94 -121 -5 0 -23 -10 -39 -21 -57 -43 -198
-76 -214 -50 -6 9 23 31 84 65 39 21 81 66 74 78 -3 4 -30 -4 -62 -19 -31 -14
-92 -31 -135 -39 -78 -13 -107 -26 -107 -48 0 -16 -36 -48 -83 -71 -20 -11
-40 -27 -43 -37 -3 -9 -13 -20 -23 -23 -24 -7 -59 -45 -42 -45 7 0 19 6 26 13
32 27 45 37 51 37 4 0 15 7 25 16 27 25 38 10 27 -38 -22 -97 -21 -114 3 -137
21 -20 24 -20 41 -4 10 9 16 23 13 31 -11 29 22 67 70 80 42 11 50 11 66 -4
17 -16 23 -15 89 20 39 21 89 58 112 82 25 27 49 44 63 44 23 0 78 27 160 78
l50 32 -37 0 c-31 0 -35 3 -31 20 3 11 10 20 16 20 5 0 29 18 53 40 46 42 82
51 104 25 17 -21 43 -19 65 5 15 16 17 32 13 90 -5 70 -19 100 -44 100 -7 0
-18 -9 -24 -19z"/>
<path d="M218 4910 c-10 -9 -18 -22 -18 -28 0 -7 9 -3 21 9 24 24 21 43 -3 19z"/>
<path d="M450 4900 c0 -5 5 -10 10 -10 6 0 10 5 10 10 0 6 -4 10 -10 10 -5 0
-10 -4 -10 -10z"/>
<path d="M0 4814 c0 -8 5 -12 10 -9 6 3 10 10 10 16 0 5 -4 9 -10 9 -5 0 -10
-7 -10 -16z"/>
<path d="M109 4740 c-26 -52 -54 -115 -64 -140 -10 -25 -25 -50 -32 -56 -7 -6
-13 -30 -13 -54 0 -34 3 -40 13 -31 8 6 19 30 26 53 14 47 66 183 81 210 6 10
10 23 10 30 0 6 7 19 16 29 9 10 14 26 12 36 -2 11 -21 -18 -49 -77z"/>
<path d="M2970 4680 c0 -5 5 -10 10 -10 6 0 10 5 10 10 0 6 -4 10 -10 10 -5 0
-10 -4 -10 -10z"/>
<path d="M297 4419 c-26 -30 -16 -32 17 -4 18 15 23 25 15 25 -8 0 -23 -9 -32
-21z"/>
<path d="M906 4415 c-4 -11 -12 -28 -17 -37 -5 -10 -9 -28 -9 -40 0 -17 5 -13
20 17 11 22 19 49 17 60 l-3 20 -8 -20z"/>
<path d="M250 4360 c-7 -13 -21 -20 -40 -20 -22 0 -43 -14 -84 -53 -46 -44
-58 -63 -70 -112 -9 -32 -25 -68 -36 -80 -16 -17 -20 -35 -20 -88 0 -37 4 -67
10 -67 5 0 19 17 30 38 11 20 24 44 29 52 6 8 17 31 27 50 37 77 48 96 69 120
12 14 35 50 51 80 16 30 32 57 37 58 13 6 29 42 18 42 -6 0 -15 -9 -21 -20z"/>
<path d="M737 4278 c-47 -78 -86 -149 -92 -170 -5 -12 -21 -48 -36 -79 -16
-31 -29 -69 -28 -85 l1 -29 14 32 c15 36 40 53 76 53 18 0 34 15 65 63 22 34
50 81 62 104 11 23 25 44 31 48 13 8 13 45 1 45 -6 0 -13 -5 -17 -11 -3 -6
-14 2 -25 20 -22 37 -34 39 -52 9z"/>
<path d="M2005 4286 c-15 -11 -17 -18 -9 -26 8 -8 14 -7 23 4 20 24 9 39 -14
22z"/>
<path d="M1947 4213 c-10 -9 -8 -33 2 -33 5 0 11 9 14 20 5 20 -3 26 -16 13z"/>
<path d="M1915 4141 c-3 -5 -1 -12 5 -16 5 -3 10 1 10 9 0 18 -6 21 -15 7z"/>
<path d="M2048 3887 c-15 -12 -52 -38 -83 -57 -31 -19 -71 -54 -90 -76 -19
-23 -50 -49 -70 -58 -19 -9 -35 -21 -35 -25 0 -5 -28 -23 -62 -41 -35 -19 -64
-37 -66 -42 -2 -4 -10 -8 -17 -8 -13 0 -136 -116 -160 -151 -28 -40 -45 -69
-45 -78 0 -6 -13 -32 -28 -58 -16 -27 -35 -75 -41 -108 -7 -33 -17 -67 -22
-75 -5 -8 -12 -22 -15 -30 -3 -8 -12 -30 -20 -48 -16 -38 -19 -82 -4 -82 6 0
10 6 10 13 0 6 7 26 16 42 17 31 29 63 87 225 18 52 50 120 71 150 40 57 153
170 171 170 14 0 286 172 338 213 86 69 127 110 127 128 0 26 -29 24 -62 -4z"/>
<path d="M550 3793 c0 -53 2 -94 4 -92 8 10 14 189 5 189 -5 0 -9 -43 -9 -97z"/>
<path d="M2572 3760 c0 -14 2 -19 5 -12 2 6 2 18 0 25 -3 6 -5 1 -5 -13z"/>
<path d="M2540 3686 c0 -14 -4 -28 -10 -31 -16 -10 -12 -65 6 -72 21 -8 36 16
27 42 -4 11 -8 35 -8 53 0 17 -3 32 -7 32 -5 0 -8 -11 -8 -24z"/>
<path d="M552 3660 c0 -14 2 -19 5 -12 2 6 2 18 0 25 -3 6 -5 1 -5 -13z"/>
<path d="M550 3555 c0 -8 5 -15 10 -15 6 0 10 7 10 15 0 8 -4 15 -10 15 -5 0
-10 -7 -10 -15z"/>
<path d="M435 3439 c-34 -58 -56 -84 -76 -91 -26 -9 -59 -66 -59 -103 0 -8 -6
-18 -14 -22 -20 -11 -69 -218 -81 -340 -7 -70 -6 -75 24 -119 17 -26 44 -55
61 -66 17 -10 36 -29 42 -43 6 -14 15 -25 20 -25 4 0 8 -4 8 -10 0 -12 32 -50
42 -50 16 0 7 19 -20 47 -39 39 -49 59 -57 123 -4 30 -12 63 -17 74 -6 10 -12
48 -14 84 -3 52 0 74 16 104 11 21 20 44 20 51 0 7 11 21 25 31 14 11 25 29
25 42 0 32 -15 30 -42 -6 -29 -40 -38 -38 -38 10 0 60 51 149 106 185 23 15
25 15 33 -7 11 -28 17 -14 24 57 3 28 17 71 31 95 31 54 32 60 7 60 -12 0 -33
-26 -66 -81z"/>
<path d="M1796 3073 c-3 -10 -22 -45 -40 -78 -19 -33 -35 -70 -35 -82 -1 -13
-5 -23 -11 -23 -18 0 -53 -91 -43 -113 8 -17 12 -14 27 29 27 72 49 117 63
132 7 7 13 20 13 28 0 8 4 14 10 14 5 0 13 12 16 28 4 15 10 29 15 32 12 9 15
43 3 47 -6 2 -14 -4 -18 -14z"/>
<path d="M792 2969 c3 -24 15 -64 27 -89 12 -25 25 -67 28 -93 3 -26 10 -50
14 -53 5 -3 9 -16 9 -29 0 -13 7 -30 15 -39 8 -8 15 -22 15 -31 0 -9 6 -28 14
-43 7 -15 16 -44 19 -64 8 -49 -11 -50 -68 -3 -23 19 -53 39 -67 45 -14 7 -34
33 -48 63 -13 29 -29 59 -36 67 -7 8 -25 44 -40 80 -14 36 -35 83 -45 105
l-19 40 0 -37 c0 -54 21 -128 45 -163 12 -16 32 -55 44 -85 13 -30 32 -67 42
-82 11 -14 19 -31 19 -37 0 -14 33 -31 60 -31 12 0 39 -20 64 -46 56 -60 69
-74 136 -138 72 -70 115 -125 137 -172 9 -22 25 -51 35 -65 10 -15 24 -51 32
-80 8 -30 19 -67 25 -83 11 -27 13 -28 28 -13 14 13 14 22 4 59 -42 149 -65
210 -105 270 -56 84 -109 157 -142 197 -17 20 -37 52 -44 71 -8 19 -24 52 -37
73 -21 34 -53 135 -83 262 -35 150 -45 180 -64 183 -17 4 -18 -1 -14 -39z"/>
<path d="M1260 2913 c0 -14 -6 -34 -14 -42 -7 -9 -22 -38 -32 -66 -10 -27 -29
-61 -41 -75 -13 -14 -23 -30 -23 -37 0 -6 -18 -28 -40 -49 -37 -36 -51 -64
-31 -64 15 0 61 41 61 55 0 7 6 15 14 18 8 3 31 40 52 82 22 43 44 87 50 99
18 32 28 106 15 106 -6 0 -11 -12 -11 -27z"/>
<path d="M50 2871 c-5 -21 -19 -50 -30 -64 -16 -20 -20 -40 -20 -102 0 -50 5
-81 13 -90 8 -7 22 -57 32 -111 10 -55 27 -117 37 -139 l19 -40 -4 50 c-6 63
-30 149 -40 139 -12 -12 -8 96 5 119 12 24 18 277 6 277 -4 0 -12 -17 -18 -39z"/>
<path d="M2130 2870 c0 -10 -6 -23 -13 -27 -17 -10 -67 -101 -67 -120 0 -8 -6
-27 -14 -41 -8 -15 -20 -56 -27 -92 -6 -36 -17 -96 -25 -135 -16 -83 -18 -175
-4 -175 6 0 10 10 10 23 0 12 4 28 9 35 12 19 22 -130 11 -165 -11 -33 -39
-268 -40 -333 0 -25 2 -58 5 -75 4 -16 2 -50 -4 -74 -13 -60 -6 -67 27 -28 38
44 92 119 92 128 0 4 19 27 43 52 54 58 94 186 41 132 -9 -9 -33 -49 -53 -88
-38 -75 -65 -94 -91 -62 -11 13 -10 22 5 56 10 22 29 49 42 59 13 10 23 22 23
27 0 15 42 51 73 62 15 6 27 16 27 24 0 15 33 81 51 103 10 13 10 32 1 98 -7
45 -12 110 -12 144 0 48 -3 62 -15 62 -9 0 -15 -9 -15 -24 0 -12 -4 -36 -10
-52 -5 -16 -14 -67 -19 -114 -5 -47 -21 -117 -36 -157 -29 -77 -97 -166 -113
-148 -12 13 -23 195 -13 195 5 0 13 42 19 93 6 50 18 119 27 152 9 33 22 87
27 120 11 69 19 87 53 134 29 39 36 115 11 105 -8 -3 -19 -19 -25 -35 -5 -16
-15 -29 -20 -29 -16 0 -13 48 2 57 8 4 19 29 25 55 15 57 15 78 2 78 -5 0 -10
-9 -10 -20z"/>
<path d="M1640 2711 c0 -10 -7 -24 -16 -31 -13 -11 -15 -37 -13 -157 3 -142
11 -175 39 -158 15 9 12 31 -5 45 -19 16 -20 169 -1 258 7 34 10 62 5 62 -5 0
-9 -8 -9 -19z"/>
<path d="M420 2549 c0 -6 9 -24 20 -39 15 -21 19 -37 14 -56 -6 -23 -4 -26 9
-21 18 7 87 -56 87 -80 0 -7 5 -13 10 -13 27 0 -13 78 -72 142 -16 16 -28 36
-28 43 0 8 -9 19 -20 25 -15 8 -20 8 -20 -1z"/>
<path d="M578 2328 c-7 -19 2 -38 18 -38 8 0 14 -5 14 -12 0 -6 2 -9 6 -6 3 3
-4 20 -14 37 -12 20 -21 27 -24 19z"/>
<path d="M1940 1604 c0 -8 5 -12 10 -9 6 3 10 10 10 16 0 5 -4 9 -10 9 -5 0
-10 -7 -10 -16z"/>
<path d="M2670 1574 c0 -8 5 -12 10 -9 6 3 10 10 10 16 0 5 -4 9 -10 9 -5 0
-10 -7 -10 -16z"/>
<path d="M2652 1523 c-1 -18 -5 -33 -10 -33 -4 0 -18 -24 -31 -52 -13 -29 -42
-79 -63 -111 -22 -32 -38 -61 -35 -63 11 -11 35 11 57 54 14 26 31 51 38 55 6
4 12 17 12 27 0 10 9 35 21 54 13 23 19 47 16 68 l-4 33 -1 -32z"/>
<path d="M2482 1238 c-14 -14 -16 -28 -2 -28 5 0 14 9 20 20 12 22 1 27 -18 8z"/>
<path d="M2223 1208 c-33 -16 -28 -26 13 -34 40 -7 62 10 42 33 -12 15 -25 15
-55 1z"/>
<path d="M2148 1193 c6 -2 18 -2 25 0 6 3 1 5 -13 5 -14 0 -19 -2 -12 -5z"/>
</g>
</svg>
